<svg width="155" height="35" viewBox="0 0 155 35" fill="none" xmlns="http://www.w3.org/2000/svg">
<path d="M146.75 11.3988V15.2637C147.134 14.864 147.582 14.569 148.075 14.3732C148.577 14.1801 149.148 14.0836 149.786 14.0836C151.202 14.0836 152.291 14.4215 153.053 15.1028C153.807 15.7786 154.188 16.7549 154.188 18.0316V23.1034H151.543V19.2037C151.543 17.9941 151.369 17.1733 151.02 16.7415C150.671 16.3097 150.065 16.0924 149.199 16.0924C148.317 16.0924 147.681 16.3365 147.297 16.822C146.914 17.3074 146.718 18.1389 146.718 19.3163V23.1034H144.167V11.3988H146.75ZM138.28 17.404C137.964 16.9427 137.556 16.5994 137.068 16.366C136.574 16.138 135.99 16.02 135.314 16.02C134.418 16.02 133.667 16.2748 133.066 16.7737C132.463 17.2806 132.162 17.9136 132.162 18.6753C132.162 19.4263 132.468 20.0485 133.085 20.5501C133.704 21.0463 134.474 21.2957 135.408 21.2957C136.121 21.2957 136.719 21.175 137.194 20.939C137.669 20.7003 138.025 20.3436 138.259 19.8662H141.078C140.732 20.947 140.066 21.7999 139.063 22.4141C138.063 23.031 136.853 23.3368 135.426 23.3368C134.59 23.3368 133.812 23.2215 133.093 22.9881C132.374 22.7548 131.728 22.4088 131.151 21.9528C130.615 21.5264 130.196 21.0248 129.893 20.4482C129.59 19.8715 129.435 19.2868 129.435 18.6941C129.435 18.0718 129.574 17.4898 129.85 16.948C130.124 16.4063 130.532 15.9181 131.068 15.4836C131.661 14.9955 132.329 14.628 133.074 14.3786C133.82 14.1238 134.616 13.9977 135.469 13.9977C136.861 13.9977 138.068 14.3062 139.085 14.9231C140.109 15.5346 140.775 16.366 141.102 17.404H138.28ZM123.998 23.1034V22.0172C123.682 22.4571 123.239 22.7843 122.665 22.9935C122.091 23.2 121.353 23.3019 120.455 23.3019C118.776 23.3019 117.376 22.8567 116.252 21.9662C115.128 21.0758 114.565 19.9654 114.565 18.6404C114.565 18.0209 114.705 17.4281 114.986 16.8729C115.265 16.3151 115.67 15.8216 116.193 15.4031C116.759 14.9365 117.387 14.5932 118.073 14.3679C118.76 14.1479 119.535 14.0353 120.396 14.0353C121.222 14.0353 121.935 14.1426 122.531 14.3571C123.126 14.569 123.609 14.8935 123.968 15.3307V14.2606H126.554V23.1034H123.998V23.1034ZM117.271 18.6083C117.271 19.3539 117.588 19.9761 118.226 20.4777C118.862 20.9792 119.637 21.2287 120.557 21.2287C121.386 21.2287 122.118 20.9765 122.751 20.475C123.384 19.9708 123.7 19.3807 123.7 18.7075C123.7 17.986 123.384 17.3691 122.745 16.8542C122.11 16.3365 121.361 16.0764 120.509 16.0764C119.618 16.0764 118.854 16.3204 118.221 16.8112C117.588 17.3021 117.271 17.9002 117.271 18.6083ZM112.958 16.0522C111.931 16.1139 111.218 16.3285 110.81 16.6798C110.408 17.0365 110.201 17.6722 110.201 18.5922V23.1034H107.557V14.2606H110.035V15.2825C110.435 14.8828 110.869 14.5932 111.347 14.4081C111.821 14.2257 112.358 14.1318 112.958 14.1318V16.0522ZM100.766 23.1034V16.0924H99.0303V14.2606H100.766V11.3988H103.41V14.2606H105.154V16.0924H103.41V23.1034H100.766ZM93.8432 23.1034V22.0172C93.5267 22.4571 93.0815 22.7843 92.5102 22.9935C91.9335 23.2 91.1959 23.3019 90.3001 23.3019C88.6211 23.3019 87.2211 22.8567 86.0973 21.9662C84.9735 21.0758 84.4049 19.9654 84.4049 18.6404C84.4049 18.0209 84.5497 17.4281 84.8313 16.8729C85.1129 16.3151 85.5099 15.8216 86.0383 15.4031C86.6042 14.9365 87.2291 14.5932 87.9184 14.3679C88.605 14.1479 89.3802 14.0353 90.2438 14.0353C91.0672 14.0353 91.778 14.1426 92.3761 14.3571C92.9688 14.569 93.4489 14.8935 93.8137 15.3307V14.2606H96.3965V23.1034H93.8432V23.1034ZM87.1138 18.6083C87.1138 19.3539 87.4303 19.9761 88.0713 20.4777C88.7016 20.9792 89.4821 21.2287 90.3967 21.2287C91.2254 21.2287 91.9603 20.9765 92.596 20.475C93.229 19.9708 93.5455 19.3807 93.5455 18.7075C93.5455 17.986 93.229 17.3691 92.5879 16.8542C91.9523 16.3365 91.2067 16.0764 90.3538 16.0764C89.4633 16.0764 88.6962 16.3204 88.0633 16.8112C87.4303 17.3021 87.1138 17.9002 87.1138 18.6083ZM74.1298 14.2606V15.2637C74.5133 14.864 74.9585 14.569 75.4574 14.3732C75.9563 14.1801 76.5222 14.0836 77.1659 14.0836C77.9839 14.0836 78.6974 14.2069 79.3116 14.4483C79.9204 14.6897 80.4246 15.0491 80.8296 15.5292C81.0952 15.8511 81.2802 16.2185 81.3929 16.6262C81.5082 17.0365 81.5645 17.6373 81.5645 18.4259V23.1034H78.92V19.1876C78.92 18.0021 78.743 17.1921 78.3943 16.7522C78.0429 16.3124 77.4341 16.0924 76.5758 16.0924C75.6934 16.0924 75.0604 16.3365 74.6769 16.822C74.2934 17.3074 74.1003 18.1389 74.1003 19.3163V23.1034H71.5442V14.2606H74.1298V14.2606ZM56.7337 18.6404C56.7337 18.0209 56.8839 17.4281 57.1789 16.8703C57.4659 16.3097 57.8923 15.8135 58.4475 15.379C59.0215 14.9365 59.6652 14.5932 60.384 14.3544C61.0974 14.1157 61.8404 13.9977 62.6128 13.9977C63.4309 13.9977 64.1872 14.1023 64.8819 14.3169C65.5685 14.5261 66.2122 14.8453 66.7862 15.269C67.3789 15.7116 67.8402 16.2239 68.1594 16.8059C68.4839 17.3879 68.6422 17.986 68.6422 18.5948C68.6422 19.2707 68.5027 19.8849 68.2211 20.4428C67.9422 21.0007 67.5184 21.5049 66.9525 21.9528C66.3865 22.4088 65.7428 22.7548 65.0214 22.9881C64.2999 23.2215 63.5113 23.3368 62.6665 23.3368C61.8109 23.3368 61.0304 23.2215 60.333 22.9828C59.6277 22.7494 58.992 22.3927 58.41 21.9233C57.8575 21.462 57.4391 20.9524 57.1601 20.3999C56.8758 19.8447 56.7337 19.26 56.7337 18.6404ZM59.4614 18.627C59.4614 19.4477 59.751 20.0968 60.3277 20.5769C60.907 21.0597 61.6929 21.2957 62.6826 21.2957C63.6642 21.2957 64.442 21.0516 65.024 20.5608C65.6061 20.07 65.9011 19.4075 65.9011 18.5788C65.9011 17.8331 65.5953 17.2216 64.9865 16.7415C64.3777 16.2587 63.6052 16.02 62.6826 16.02C61.7358 16.02 60.9607 16.2641 60.3599 16.7522C59.7618 17.235 59.4614 17.8626 59.4614 18.627ZM49.3069 20.1692V20.2926C49.3069 20.6788 49.4357 21.0007 49.6878 21.2421C49.948 21.4861 50.2779 21.6095 50.6802 21.6095C51.0691 21.6095 51.3856 21.5183 51.6296 21.3333C51.871 21.1509 51.9944 20.9175 51.9944 20.6359C51.9944 20.3758 51.9059 20.1558 51.7235 19.9895C51.5492 19.8232 51.2273 19.6516 50.7606 19.4799C50.4978 19.3887 50.1143 19.2627 49.6047 19.0991C49.0951 18.9408 48.7679 18.8148 48.6257 18.7263C48.2019 18.4554 47.8962 18.1577 47.6977 17.8278C47.4965 17.4979 47.3946 17.1197 47.3946 16.6959C47.3946 15.9503 47.7299 15.3227 48.4031 14.8077C49.0763 14.2928 49.889 14.0353 50.8438 14.0353C51.8549 14.0353 52.6542 14.2633 53.247 14.7192C53.8343 15.1752 54.1589 15.8135 54.2125 16.6342H51.8362V16.5833C51.8362 16.3016 51.7423 16.079 51.5519 15.9181C51.3614 15.7545 51.0986 15.6767 50.7606 15.6767C50.4683 15.6767 50.2189 15.7545 50.0258 15.9127C49.8273 16.071 49.7307 16.2695 49.7307 16.5055C49.7307 16.8917 50.2376 17.2511 51.2568 17.5837C51.525 17.6695 51.7316 17.7339 51.8791 17.7848C52.8554 18.1255 53.5232 18.4929 53.8826 18.8899C54.2393 19.2815 54.419 19.8125 54.419 20.483C54.419 21.3091 54.0569 21.9904 53.3435 22.5295C52.6301 23.0686 51.7235 23.3368 50.6373 23.3368C49.543 23.3368 48.6606 23.0552 47.99 22.4866C47.3195 21.9206 46.9547 21.1482 46.8877 20.18L49.3069 20.1692Z" fill="black"/>
<path d="M35.9175 7.53468L35.9273 0.492314L2.96343 0.386287C0.727046 0.492315 0 1.21936 0 3.40228V14.2581C0 15.7763 0.671805 16.7769 3.41516 16.7769H28.239C28.8404 16.7769 28.8831 18.0626 28.239 18.0626H0V25.3509H13.9778V27.2959H0L0.0980092 34.3124L35.9273 34.3561V27.2959H22.3032V25.3509H33.6553C35.0515 25.3509 35.9273 24.6229 35.9273 23.1065V11.9967C35.9273 9.84501 35.1958 9.09391 33.1189 9.09391H8.08928C7.37649 9.09391 7.37025 7.77435 8.09284 7.77435H35.9273L35.9175 7.53468Z" fill="#F5821F"/>
</svg>
